<?xml version="1.0" encoding="UTF-8"?>
<svg id="_レイヤー_1" data-name="レイヤー 1" xmlns="http://www.w3.org/2000/svg" viewBox="0 0 512 453">
  <defs>
    <style>
      .cls-1 {
        fill: #6ba8cd;
      }

      .cls-2 {
        fill: #addaf6;
      }

      .cls-3 {
        fill: #88bedc;
      }

      .cls-4 {
        fill: #90c4e1;
      }

      .cls-5 {
        fill: #c3e7fa;
      }
    </style>
  </defs>
  <path class="cls-2" d="M512,77.05v4.67c-1.4,3.36-3.18,6.16-5.87,9.24l-48.63,55.6,47.46,56.38c2.7,3.21,5.13,5.84,7.04,9.1v6.76c-2.25,3.89-5.82,6.28-10.34,8.07l-39.28,15.58c-2.21.88-4.19,2.02-5.41,3.39-43.75,14.34-85.92,34.51-130.15,50.59-4.62,1.68-10.69-.65-13.92-4.36l-39.55-45.41c-4.72-5.42-8.49-10.97-13.46-15.48-1.15-1.04-1.46-3.2-2.8-4.18v-1.93s199.47-78.54,199.47-78.54l-133.89-52.16-47.79-18.48c-6.63-2.16-12.55-5.91-19.12-6.71-4.29.33-8.4,2.98-12.77,4.66l-88.12,33.9-98.89,38.17c-.32-.13-.77.06-1.1-.03-4.11-3.97-8-8.22-12.06-12.86L10.68,96.27c-4.17-4.77-8.19-8.99-10.68-14.4v-4c1.83-4.89,4.52-7.55,9.59-9.51l54.82-21.13L182.32,2.28c7.55-4.36,14.85-2.19,20.26,4.09l53.34,61.95,53.6-61.84c4.45-5.14,9.74-7.84,16.67-5.65l144.56,55.21,32.98,12.89c4.21,1.65,6.76,4.17,8.28,8.11Z"/>
  <path class="cls-5" d="M255.91,225.04c.36,0,.85.16,1.18.03v1.93c-.3-.03-.65.18-.94.1-1.45-.37-1.52,1.04-2.14,1.69-6.57,6.98-12.46,14.48-19.04,22.04l-35.41,40.71c-3.49,4.01-10.46,6.8-15.71,4.69l-124.87-50.3c-1.71-.69-3.06-.84-4.05-.07-1.36-1.89-3.68-2.6-6.15-3.59l-37.09-14.84c-5.44-2.18-9.57-5.28-11.69-10.47v-4c1.38-.73,1.03-2.69,2.2-4.07l46.09-54.66c2.5-2.96,5.82-4.73,6.59-8.34.33.09.79-.1,1.1.03l191.88,77.12c3.09,1.24,5.4,2.08,8.05,2.01Z"/>
  <path class="cls-3" d="M259.9,231.18c-.38.33-.8,1.59-.37,2.46l17.72,36.38,22.29,44.44c3.69,7.36,10.71,10.67,18.62,7.36l19.01-7.96,105.86-42.88c5.03-2.04,9.13-4.9,14.04-5.23l.36,91.16c.04,10.85-4.89,19.02-14.92,23.05l-176.6,70.94c-3.84,1.54-6.27,2.01-9.73,2.1v-225.89c.28.08.63-.13.93-.1,1.34.98,1.65,3.14,2.8,4.18Z"/>
  <path class="cls-3" d="M257.09,225.07c-.33.13-.82-.04-1.18-.03l-.14-155.86c6.57.8,12.49,4.55,19.12,6.71l47.79,18.48,133.89,52.16-199.48,78.54Z"/>
  <path class="cls-1" d="M255.77,69.18l.14,155.86c-2.66.07-4.96-.77-8.05-2.01L55.98,145.91l98.89-38.17,88.12-33.9c4.37-1.68,8.48-4.33,12.77-4.66Z"/>
  <path class="cls-1" d="M456.97,245.84c.65,6.62.05,13.29.08,19.91-4.91.34-9.01,3.19-14.04,5.23l-105.86,42.88-19.01,7.96c-7.91,3.31-14.93,0-18.62-7.36l-22.29-44.44-17.72-36.38c-.42-.87-.01-2.13.37-2.46,4.97,4.5,8.74,10.06,13.46,15.48l39.55,45.41c3.23,3.71,9.3,6.05,13.92,4.36,44.23-16.08,86.4-36.25,130.15-50.59Z"/>
  <path class="cls-2" d="M256.15,227.1v225.89c-4.84.12-8.59-1.61-13.58-3.62l-173.18-69.63c-7.53-3.03-14.49-10.38-14.47-18.7l.25-95.04c2.16-.33,3.73.82,6.19,1.82l134.15,54.4c8.39,3.4,14.83-2.69,18.12-9.4l33.62-68.55c2.65-5.4,5-10.27,6.76-15.49.62-.66.69-2.07,2.14-1.69Z"/>
  <path class="cls-4" d="M55.18,266.01c-.66-6.69-.31-13.43-.24-20.15.99-.77,2.34-.61,4.05.07l124.87,50.3c5.25,2.11,12.22-.68,15.71-4.69l35.41-40.71c6.58-7.57,12.47-15.07,19.04-22.04-1.75,5.22-4.11,10.08-6.76,15.49l-33.62,68.55c-3.29,6.71-9.73,12.8-18.12,9.4l-134.15-54.4c-2.46-1-4.03-2.15-6.19-1.82Z"/>
</svg>