<?xml version="1.0" encoding="UTF-8"?>
<svg id="_レイヤー_1" xmlns="http://www.w3.org/2000/svg" version="1.1" viewBox="0 0 590.5 482.3">
  <!-- Generator: Adobe Illustrator 30.1.0, SVG Export Plug-In . SVG Version: 2.1.1 Build 136)  -->
  <defs>
    <style>
      .st0 {
        fill: #4e2b16;
      }

      .st1 {
        fill: #4f2d17;
      }

      .st2 {
        fill: #905a2e;
      }
    </style>
  </defs>
  <path class="st0" d="M574.1,202.1c23.8,29.3,18.9,69.2-1.9,99.6-22.3,32.6-63.6,53.6-102.3,62.2-29.7,54.5-80.3,94.3-140.8,110-47,12.2-96.8,10.9-142.9-4.6-38.6-13-71.8-36-99-66.1-21.6-23.9-37.5-51.4-49.9-81.1C14.2,266.6,5.8,204.9.1,145.6c-.6-6.3.7-11.8,5.5-15.4,4.4-3.3,11.5-4.9,16.6-.9,35.4,27.7,73.8,44.9,117.8,55,61.8,14.2,125.6,16.5,188.5,7.8,39.1-5.4,76.2-15.6,111.6-32.2,18.4-8.6,34.6-19,50.6-31.4,3.6-2.8,10.5-1.7,14.3.7,2.9,1.8,7.2,6.5,6.9,11.2l-2.1,39c24-4.5,48.8,3.7,64.2,22.7h0ZM97.4,368.7c27.9,37.6,66.6,64.5,111.6,76.4,43.9,11.6,90.2,9.6,132.5-6.3,74.9-28.2,116.5-92.6,130.5-169.1,4.1-22.2,4.9-43.8,6.6-66.4l2.6-33.1c-37.7,23.7-85.2,39.5-128.3,47.4-74.2,13.7-150.6,11.8-223.9-6.1-34.5-8.4-66.4-21.7-96.9-39.9,8.9,70,22.6,139.6,65.2,196.9h0ZM558.3,264c4.2-13.8,3.3-28.4-4.9-40.4-10.2-14.8-29.3-19.7-45.8-13.6-1.3,42.9-6.6,78-20.7,118.1,30.7-11.7,61.8-31.8,71.4-64.1h0Z"/>
  <path class="st2" d="M223.8,83.2c-17-1.7-16.1-2.7-32.8,1.4.2-46.5,51.2-89.8,95.7-84.2,11.5,1.5,22,5.9,29.9,15.2-13.3,16.8-30.5,28.9-49.8,37.8-16.1,7.4-30.6,16-43.1,29.8h0Z"/>
  <path class="st1" d="M287.1,182.2l-23.5,1.3c-10.7-9.4-19.9-19.9-27.9-32-13.6-20.5-31.1-36.3-54.2-47.3,7.8-8.4,19.1-11.5,30.6-11,39.9,1.9,83.4,47.3,74.9,89h0Z"/>
  <path class="st1" d="M172.6,176.2c-3-.3-5.9-1.8-8.6-3.8-16.3-12-29-27.1-39.3-44.7-5.6-9.6-10.7-18.8-17.7-27.4-10.3-12.7-22.9-22.3-37.1-31.3,15.8-14.1,39.5-10.2,57.1-.6,16.2,8.8,28.9,22.1,38.1,38.5-12,24.5-5.6,45.8,7.4,69.3h0Z"/>
  <path class="st1" d="M157.3,173.4c-32.7-6.1-62.6-16.1-90.9-31.4-11.6-20.7-18.6-50.2,0-69.7,18,13.6,31.5,30.5,41.6,50.5,11.1,21.7,29,37.3,49.3,50.7Z"/>
  <path class="st2" d="M270.9,109.6c-10.8-9.7-21.3-17.2-35.3-22.7,8.7-6.8,18.2-11.9,28.3-16.7,15.6-7.4,29-17.3,40.5-30l15.9-19.8c12,17.6,9.9,39.4.6,57.8-6.9,1.1-12.6,2.4-18.7,4.8-12.4,6.2-22.9,14.3-31.4,26.7Z"/>
  <path class="st1" d="M251.1,183.3c-22.2-.3-41.6-2-62.6-4.3-15.2-18.3-27.8-50.4-9.6-71.6,16.2,11.1,29.9,24.1,40.1,40.1,8.8,13.9,19.1,25,32.2,35.8h0Z"/>
  <path class="st1" d="M372.1,168.1c-8-8.5-10.7-19.4-8.1-30.9,5.6-25.1,25.2-46.1,49.9-53.6,11.6-3.6,23.6-2.3,33,4.9-8.2,13.5-19,24.5-32.5,32.5-18.8,11.3-33.3,26.4-42.4,47.1Z"/>
  <path class="st2" d="M316.1,139c-6.6,7.4-11.5,14.8-17.1,23-3.8-16.8-9.8-30.9-20.7-44,11.7-19.2,40.4-37.3,63.3-25.4-4.8,17.2-13.3,32.8-25.5,46.3h0Z"/>
  <path class="st2" d="M361.2,172.3c-20.6,4.4-39.7,7.2-60.9,9,6-11.8,13.4-21.2,21.5-31.1,13-15.9,21.2-34.2,24.1-55.4,7.6,3.4,12.7,10,15.6,17.6-9.7,20.3-14.6,40-.4,59.8h0Z"/>
  <path class="st1" d="M450.6,138.9c-23.3,12.6-46.8,22.2-73.9,29.1,7.4-13.7,19-23.9,32-31.8,17.7-10.9,31.6-25.2,40.9-44.9,13.2,13.9,9.3,32.5,1,47.6Z"/>
  <path class="st1" d="M403.4,75.1c-10.7,5.3-19.3,11-28.3,19.6-2.5-18-8.8-34.3-20.3-49.3,9.3-3.2,17.8-1,25.6,3.3,10,5.9,18,14.7,23,26.4h0Z"/>
  <path class="st2" d="M180.8,89.3l-8.5,7.6c-8.3-13.8-19-24.1-31.9-34,10.8-15.2,31.9-15,44.8-5.5-3.9,10-5.8,19.9-4.3,31.8h0Z"/>
  <path class="st1" d="M365.7,96.8c-8.8-9.7-18.7-16.6-32.1-18.5l6.2-21.3c1.3-4.5,6.7-7.8,11.5-10.3,9.4,15.1,13.4,31.8,14.4,50h0Z"/>
  <path class="st2" d="M82.2,215.6l25.3,8.7c6.4,63.7,39.5,144.1,105.2,166.7-48.7-38.6-70.3-99.1-77.7-159.8l28.4,5.7c72.1,14.4,167.7,8,239.4-13,20.2-5.9,38.7-13.3,58.2-22.2-2.4,47.4-7,85.1-26.1,127.2-24.3,53.2-72.5,90.7-129.9,101.6-16.5,3.1-32.7,4.6-49.4,3.5-47.3-3.1-88.5-19.2-122.6-52.5-20.4-20-35.9-43.2-47.7-69.3-11.2-24.7-19.1-50.1-24.3-76.7l-6.1-31.3,27.4,11.5h0Z"/>
</svg>