<?xml version="1.0" encoding="UTF-8"?>
<svg id="_レイヤー_1" data-name="レイヤー 1" xmlns="http://www.w3.org/2000/svg" viewBox="0 0 460 450">
  <defs>
    <style>
      .cls-1 {
        fill: #e3641d;
      }

      .cls-2 {
        fill: #f6a955;
      }

      .cls-3 {
        fill: #f78b2d;
      }

      .cls-4 {
        fill: #cc4a0f;
      }

      .cls-5 {
        fill: #f8dcac;
      }
    </style>
  </defs>
  <path class="cls-1" d="M77.14,442.26c3.28-1.19,5.77,1.57,8.9,2.74l8.11,3.03,127.64.19c2.95,0,5.25,1.2,8.13-.32l.08-36.41c8.96-.08,15.32-7.11,15.3-16.62l-.27-111.32c-.02-7.45-7.6-13.26-15.03-13.55l-.07-9.46,197.86.04c-.08-5.93.28-11.36,1.34-17.81l-199.01-.04-.19,17.81-197.83.11c-.74-5.3-2.64-10.68-2.25-16.18.69-2.38,2.73-1.71,5.45-1.71h194.62s-.17-57.55-.17-57.55l64.12-.19,11.8,28.71c3.07,7.48,11.13,11.43,18.5,9.34,6.93-1.97,12.13-9.47,10.34-17.66-1.55-7.11-4.84-13.75-7.37-20.27l43.86-.31,15.71-59.93,33.8-26.88-67.39-19.6c-2.52-.38-5.21-.97-7.16.2,1.71-2.07,1.71-4.79,2.44-7.57l2.07-7.8c1.19-4.47,4.97-6.41,9.28-5.17l64.4,18.56c2.95,2.53,1.55,8.76.42,11.94l-2.94,8.26,16.13,40.09c1.52,3.77-.17,8.28-1.3,11.91-1.98,6.41-3.48,12.57-5.07,19.18-1.26,5.26-4.32,10.25-3.54,15.73l13.46,2.15c6,.96,16.47,11.92,17.99,20.6.85,4.85,1.07,10.82-.16,15.34-3.55,13-14.88,21.25-27.9,21.93l-2.92,18.39-.77,9.22c-.46,5.55-1.74,10.48-2.54,15.9l-1.92,12.86-1.75,14.3-2.02,14.06-2.1,14.1c-.67,4.52-1.59,9.21-2.15,13.75l-1.86,15.12c-.52,4.23-1.23,8.08-1.84,12.39l-2.12,14.92c-.6,4.21-.82,8.77-2.07,12.81-3.26,10.52-8.83,20.3-17.87,27.35-5.91,4.61-15.17,10.57-23.49,10.6l-143.89.47-124.68-.13c-7.71,0-14.96-3.52-20.1-7.61ZM341.99,399.45l13.19-112.84c1.07-9.13-6.56-16.22-14.66-16.49s-14.7,5.77-15.72,14.55l-12.66,108.24c-1.03,8.82,3.57,16.15,11.56,18.02,7.41,1.73,17.2-2.04,18.3-11.47Z"/>
  <path class="cls-3" d="M229.91,260.54l.07,9.46c-8.15-.32-15.33,6.81-15.33,15.59l.08,111.34c0,8.19,7.5,13.88,15.25,14.56l-.08,36.41c-2.87,1.52-5.18.32-8.13.32l-127.64-.19-8.11-3.03c-3.12-1.17-5.62-3.92-8.9-2.74-11.12-6.17-22.1-18.06-24.09-32.26l-20.97-149.36,197.83-.11ZM148.05,395.41l-13.51-113.48c-.97-8.11-9.62-12.88-16.94-11.63-6.23,1.07-13.68,7.36-12.76,15.37l13.1,113.12c.99,8.53,9.24,13.26,16.62,12.48,6.54-.69,14.55-7.02,13.49-15.86Z"/>
  <path class="cls-4" d="M293.92,98.85c2.71,6.94,4.28,14.62,8.19,21.03.06.28-.06.63.04.9l24.98,64.35c2.53,6.52,5.82,13.17,7.37,20.27,1.79,8.19-3.41,15.69-10.34,17.66-7.38,2.1-15.43-1.86-18.5-9.34l-11.8-28.71c-5.78-14.07-9.15-29.78-16.95-42.79,1.16-1.39-7.01-21.7-6.9-19.88-.28-4.49-2.79-7.48-4.29-11.36l-34.93-90.44c-4.56,4.18-5.13,8.42-6.86,12.92l-31.8,82.47-26.81,69.35c-3.3,8.54-7.25,16.98-10.03,26.17s-10.51,13.92-19.36,11.53c-7.75-2.09-13.01-10.68-10.13-19.2l6.29-18.62c.97-2.86,2.97-7.06,4.22-10.02,5.44-12.84,10.7-25.87,15.61-39.45,1.4-3.88,3.78-6.76,4.16-10.6.16-1.63,1.4-4.55,1.88-6.07,2.85-4.3,5-11.89,6.86-16.97l3.33-9.13c1.91-5.23,5.77-10.15,5.72-15.96,2.4-2.68,3.41-6.98,4.85-10.67l21.24-54.69C202.69,4.55,207.42.15,214.47,0s11.26,3.34,15.75,10.65C233.73,3.09,238.89-.16,245.41.06c6.87.23,11.55,4.07,14.21,10.88l34.3,87.92Z"/>
  <path class="cls-3" d="M45.32,184.72l86.76.44-6.29,18.62c-2.88,8.52,2.39,17.11,10.13,19.2,8.85,2.39,16.67-2.62,19.36-11.53s6.73-17.63,10.03-26.17l40.57-.46,23.84.38.17,57.55H35.28c-2.72,0-4.76-.67-5.45,1.71-1.84-1.07-4.09-1.46-6.52-2.01C9.55,239.38.13,227.58,0,213.7c-.12-12.95,9.14-26.38,23.17-28.23,7.46-.98,15.13-.78,22.15-.75Z"/>
  <path class="cls-2" d="M71.07,72.67l9.72,11.1c-9.52,12.15-16.82,25.67-18.37,41.09-.23,2.3,2.04,4.13,3.4,4.43,1.61.34,3.5-.59,4.84-1.78,8.23-7.3,15.13-15.14,19.58-25.27.78-1.79,2.28-3.09,3.84-3.23,3.99,6.12,9.22,11.36,12.71,17.93.55,1.38-.17,2.91-1.48,4.02-3.32,2.81-5.12,6.23-7.38,9.81-6.22,9.85-11.17,20.43-11.92,32.31-.11,1.68.46,3.75,1.26,4.42s3.33,1.08,4.6.18c9.47-6.74,15.88-16.09,21.63-26.19,1.19-2.09,2.22-4.51,4.46-4.63.91,2.59,3.3,5.21,5.1,7.14,1.9,8.74,11.67,22.14,13.25,31.15-1.25,2.96-3.26,7.17-4.22,10.02l-86.76-.44c.91-.9.46-2.11-.23-3.44-10.89-21.35-20.19-42.91-26.03-66.26-4.24-16.96-9.97-50.46,10.09-59.16,14.22-6.17,32.63,9.08,41.92,16.81Z"/>
  <path class="cls-5" d="M386.69,124.89l-15.71,59.93-43.86.31-24.98-64.35c1.43-.24,1.17,2,2.34,2.94,3.57,2.9,6.99-11.08,7.37-13.78.43-3.07.67-5.62,3.17-7.06-.13.99.4,1.94,1.66,2.46l25.29,7.38,44.72,12.17Z"/>
  <path class="cls-2" d="M386.69,124.89l-44.72-12.17-25.29-7.38c-1.26-.51-1.79-1.47-1.66-2.46.35-.2.59-.66.89-.94.51-.16.91-.53,1.08-1.05.26-.28.75-.51.9-.86.85-.06,1.8-.35,2.02-1.28,9-6.34,16.64-14.53,26.05-20.16,1.95-1.17,4.63-.58,7.16-.2l67.39,19.6-33.8,26.88Z"/>
  <path class="cls-1" d="M164.82,102.05c-1.85,5.08-4,12.67-6.86,16.97-21.19-.21-31.07-7.17-36.12-29.72,13.36-6.94,29.89-3.59,38.96,8.71,1.29,1.75,1.97,3.75,4.01,4.04Z"/>
  <path class="cls-1" d="M156.08,125.09c-.39,3.84-2.76,6.72-4.16,10.6-4.91,13.58-10.17,26.6-15.61,39.45-1.58-9.01-11.34-22.41-13.25-31.15,6.81-12.28,18.93-20.22,33.02-18.9Z"/>
  <path class="cls-5" d="M117.96,136.84c-2.24.12-3.27,2.54-4.46,4.63-5.74,10.1-12.16,19.45-21.63,26.19-1.27.9-3.77.52-4.6-.18s-1.36-2.75-1.26-4.42c.75-11.88,5.7-22.46,11.92-32.31,2.26-3.58,4.06-7,7.38-9.81,1.31-1.11,2.03-2.64,1.48-4.02,3.57,6.71,8.64,12.7,11.17,19.92Z"/>
  <path class="cls-5" d="M94.09,99c-1.57.14-3.06,1.44-3.84,3.23-4.45,10.13-11.35,17.98-19.58,25.27-1.34,1.19-3.23,2.12-4.84,1.78-1.36-.29-3.63-2.13-3.4-4.43,1.55-15.42,8.85-28.94,18.37-41.09l-9.72-11.1c9.1,7.57,16.56,16.44,23.02,26.33Z"/>
  <path class="cls-5" d="M319.9,98.77c-.22.92-1.17,1.22-2.02,1.28.37-.89,1.38-.83,2.02-1.28Z"/>
  <path class="cls-5" d="M315.91,101.95c.36-.34.74-.68,1.08-1.05-.17.51-.57.89-1.08,1.05Z"/>
  <path class="cls-4" d="M341.99,399.45c-1.1,9.43-10.89,13.2-18.3,11.47-7.99-1.86-12.59-9.19-11.56-18.02l12.66-108.24c1.03-8.78,7.42-14.82,15.72-14.55s15.73,7.36,14.66,16.49l-13.19,112.84Z"/>
  <path class="cls-4" d="M229.98,270c7.43.29,15.01,6.1,15.03,13.55l.27,111.32c.02,9.51-6.34,16.54-15.3,16.62-7.76-.68-15.25-6.37-15.25-14.56l-.08-111.34c0-8.78,7.17-15.91,15.33-15.59Z"/>
  <path class="cls-4" d="M229.91,260.54l.19-17.81,199.01.04c-1.06,6.45-1.42,11.88-1.34,17.81l-197.86-.04Z"/>
  <path class="cls-2" d="M250.82,133.84l-.51,7.04c-.22,3.12,2.7,4.8,5.19,4.87,2.7.08,4.94-1.58,5.56-4.7l1.16-5.89c6.98,1.53,10.18,6.27,14.69,7.06,7.8,13.01,11.17,28.72,16.95,42.79l-64.12.19-23.84-.38c-2.03-18.85,6.73-36.9,24.04-45.72,1.3-.66,2.19-1.56,2.93-2.35,5.89-1.52,11.87-2.64,17.95-2.9Z"/>
  <path class="cls-4" d="M148.05,395.41c1.05,8.84-6.95,15.17-13.49,15.86-7.38.78-15.63-3.95-16.62-12.48l-13.1-113.12c-.93-8,6.52-14.29,12.76-15.37,7.32-1.26,15.97,3.52,16.94,11.63l13.51,113.48Z"/>
  <path class="cls-1" d="M232.87,136.74c-.74.79-1.63,1.69-2.93,2.35-17.32,8.82-26.07,26.87-24.04,45.72l-40.57.46,26.81-69.35c.09.33-.07,2.48.62,2.27,16.62-5.18,34.05,2.64,40.12,18.55Z"/>
  <path class="cls-1" d="M270.01,122.34c-4.02,3.24-6.79,7.75-7.79,12.82l-1.16,5.89c-.61,3.12-2.86,4.78-5.56,4.7-2.49-.08-5.42-1.76-5.19-4.87l.51-7.04c2.49-9,7.26-17.45,14.9-22.87,1.5,3.88,4.01,6.87,4.29,11.36Z"/>
</svg>