<?xml version="1.0" encoding="UTF-8"?>
<svg id="_レイヤー_1" data-name="レイヤー 1" xmlns="http://www.w3.org/2000/svg" viewBox="0 0 362.93 454.78">
  <defs>
    <style>
      .cls-1 {
        fill: #f99e96;
      }

      .cls-2 {
        fill: #f8b3b1;
      }

      .cls-3 {
        fill: #e36a5b;
      }

      .cls-4 {
        fill: #b84a3d;
      }

      .cls-5 {
        fill: #f99e97;
      }

      .cls-6 {
        fill: #c67c72;
      }

      .cls-7 {
        fill: #e26d5f;
      }

      .cls-8 {
        fill: #f9786a;
      }

      .cls-9 {
        fill: #d65644;
      }

      .cls-10 {
        fill: #e26b5c;
      }

      .cls-11 {
        fill: #d65847;
      }

      .cls-12 {
        fill: #d85747;
      }

      .cls-13 {
        fill: #d75744;
      }

      .cls-14 {
        fill: #efb6af;
      }

      .cls-15 {
        fill: #f77b6e;
      }
    </style>
  </defs>
  <path class="cls-8" d="M334.17,171.76l-26.04,254.67c-1.04,10.18-7.63,18.84-15.88,22.53-2.81,1.26-6.93,1.19-9.21,3.79h-1l-100.86-.12-.09-39.86c7.18.13,15.95-5.69,15.97-14.08l.36-180.79c.02-10.28-5.51-18.22-16.21-18.98l-.09-27.19,1.03-.28,152.03.3ZM264.16,397.14l16.52-181.25c.8-8.74-5.7-15.44-13.66-16.65-5.61-.85-16.29,3.29-17.05,11.36l-17.44,185.01c-.88,9.3,6.53,16.84,14.83,17.21s15.9-5.75,16.8-15.68Z"/>
  <path class="cls-1" d="M181.11,171.74l.09,27.19c-6.66.66-15.63,5.83-15.63,14.05l-.13,184.04c0,8.65,6.96,15.6,15.65,15.76l.09,39.86h-99.97s-13.41-5.71-13.41-5.71c-7.86-3.34-12.39-12.74-13.34-21.91l-26.33-254.34c1.01.67,2.11.97,4,.97l148.98.09ZM130.17,396.16l-16.74-181.34c-.88-9.57-7.66-16.27-16.82-15.62-7.9.56-15.57,7.46-14.73,16.66l16.73,182.98c.81,8.89,9.11,14.58,16.96,14.03,7.51-.53,15.48-7.06,14.59-16.71Z"/>
  <path class="cls-2" d="M279.04,86.76h-100s-141.5,24.57-141.5,24.57c-3.98.69-7.04,1.91-10.5,1.4-4.76-.16-10.28,1.93-14.76,3.47,2.49-2.06-2.07-3.37-2.53-5.43-4.5-20.42,9.07-40.96,29.8-44.79l66.52-12.31,9.14-.67,111.86-19.85c1.59-.28.88-4.03,1-4.48.15,1,1.34,2.1,1.47,3.71l66.45-11.38c19.58-3.35,38.17,10.01,42.92,28.63,1.25,4.9-1.27,9.44-6.15,10.29l-143.91,25.32,89.04.59c.83,0,1.25.48,1.14.93Z"/>
  <path class="cls-8" d="M335.24,159.84c-.4-1.26-1.37-1.73-3.27-1.73l-151.01-.06c.17-14.75.55-29.54-.04-44.27l131.22-.95,32.04,1.24c11.58.45,19.76,13.6,18.65,23.7-1.25,11.46-10.6,20.22-22.17,20.52-2.21.06-3.95.6-5.42,1.55Z"/>
  <path class="cls-5" d="M27.04,112.73c51,1.66,102.52,1.41,153.87,1.04.59,14.74.21,29.52.04,44.27l-152.57.13c-.44,2.53-.44,4.46-.5,6.58-1.51-1.2-.72-3.59-.99-6.25-11.68,1.17-22.41-5.02-25.76-15.48s.76-23.25,11.15-26.82c4.48-1.54,10-3.63,14.76-3.47Z"/>
  <path class="cls-11" d="M179.04,86.75c-.12.27.35,1.1,1.14,1.09l101.86-.44,1,.14c.21.7.73,1.21,1.48,1.28.6.05,1.98-.07,1.54-1.03,12.26.98,22.33,12.98,26.07,25.04l-131.22.95c-51.35.37-102.87.63-153.87-1.04,3.46.51,6.52-.71,10.5-1.4l141.5-24.58Z"/>
  <path class="cls-15" d="M228.08,28.67c-.12.45.59,4.2-1,4.48l-111.86,19.85-9.14.67-2.29-12.97c-1.93-10.91,4.33-23.93,16.05-26.06L197.9.49c13.45-2.44,26.52,4.3,28.62,17.99l1.56,10.2Z"/>
  <path class="cls-12" d="M335.24,159.84c-.07,4-.66,7.96-1.06,11.93l-152.03-.3c-1-4.29-1.24-8.94-1.19-13.42l151.01.06c1.91,0,2.87.47,3.27,1.73Z"/>
  <path class="cls-7" d="M180.95,158.05c-.05,4.48.19,9.12,1.19,13.42l-1.03.28-148.98-.09c-1.89,0-2.99-.3-4-.97-.2-1.93-.32-3.98-.27-5.92.06-2.12.07-4.05.5-6.58l152.57-.13Z"/>
  <path class="cls-14" d="M181.18,452.64c0,.51-.19,1.13.9,1.13l98.83-.02c.82,0,1.26-.63,1.14-1h4c-1.54.71-2.57,2.02-5.23,2.02l-194.61-.09c-4.9,0-17.74-3.44-18.4-7.76l13.41,5.69h99.97Z"/>
  <path class="cls-4" d="M279.04,86.76c1.05,0,2.22-.22,3,.64l-101.86.44c-.8,0-1.26-.82-1.14-1.09h100Z"/>
  <path class="cls-6" d="M292.25,448.97c-.46,2.86-4.02,2.79-6.21,3.79h-3c2.28-2.6,6.4-2.53,9.21-3.79Z"/>
  <path class="cls-4" d="M286.07,87.78c.44.97-.94,1.08-1.54,1.03-.75-.06-1.27-.58-1.48-1.28l3.03.24Z"/>
  <path class="cls-13" d="M264.16,397.14c-.9,9.93-8.14,16.06-16.8,15.68s-15.71-7.91-14.83-17.21l17.44-185.01c.76-8.07,11.44-12.21,17.05-11.36,7.97,1.2,14.46,7.91,13.66,16.65l-16.52,181.25Z"/>
  <path class="cls-9" d="M181.08,412.78l.12-213.85c10.7.76,16.23,8.7,16.21,18.98l-.36,180.79c-.02,8.39-8.78,14.21-15.97,14.08Z"/>
  <path class="cls-6" d="M282.04,452.76c.11.37-.32,1-1.14,1l-98.83.02c-1.09,0-.9-.62-.9-1.13l100.86.12Z"/>
  <path class="cls-3" d="M130.17,396.16c.89,9.64-7.09,16.18-14.59,16.71-7.85.55-16.15-5.14-16.96-14.03l-16.73-182.98c-.84-9.21,6.83-16.11,14.73-16.66,9.16-.65,15.94,6.05,16.82,15.62l16.74,181.34Z"/>
  <path class="cls-10" d="M181.2,198.93l-.12,213.85c-8.69-.16-15.66-7.11-15.65-15.76l.13-184.04c0-8.23,8.97-13.39,15.63-14.05Z"/>
</svg>